<?xml version="1.0" encoding="UTF-8" standalone="no"?>
<svg
   width="283.465pt"
   height="141.732pt"
   viewBox="0 0 283.465 141.732"
   version="1.1"
   id="svg50"
   sodipodi:docname="OSLiB_Logo.svg"
   inkscape:version="1.2.1 (9c6d41e410, 2022-07-14)"
   xmlns:inkscape="http://www.inkscape.org/namespaces/inkscape"
   xmlns:sodipodi="http://sodipodi.sourceforge.net/DTD/sodipodi-0.dtd"
   xmlns="http://www.w3.org/2000/svg"
   xmlns:svg="http://www.w3.org/2000/svg">
  <defs
     id="defs54" />
  <sodipodi:namedview
     id="namedview52"
     pagecolor="#ffffff"
     bordercolor="#000000"
     borderopacity="0.25"
     inkscape:showpageshadow="2"
     inkscape:pageopacity="0.0"
     inkscape:pagecheckerboard="0"
     inkscape:deskcolor="#d1d1d1"
     inkscape:document-units="pt"
     showgrid="false"
     inkscape:zoom="3.1908702"
     inkscape:cx="188.97666"
     inkscape:cy="94.331635"
     inkscape:window-width="1920"
     inkscape:window-height="1017"
     inkscape:window-x="1912"
     inkscape:window-y="-8"
     inkscape:window-maximized="1"
     inkscape:current-layer="svg50" />
  <path
     fill-rule="nonzero"
     fill="rgb(96.044922%, 47.904968%, 7.907104%)"
     fill-opacity="1"
     d="M 58.753906 74.070313 L 60.949219 74.070313 C 59.980469 84.449219 63.953125 95.121094 72.542969 102.332031 C 81.796875 110.09375 94.070313 111.882813 104.683594 108.117188 L 104.726563 108.246094 C 91.59375 113.359375 76.117188 109.867188 66.558594 98.472656 C 60.621094 91.398438 58.078125 82.605469 58.753906 74.070313 "
     id="path2" />
  <path
     fill-rule="nonzero"
     fill="rgb(96.044922%, 47.904968%, 7.907104%)"
     fill-opacity="1"
     d="M 70.726563 50.84375 C 85.027344 38.839844 106.351563 40.707031 118.355469 55.011719 C 119.054688 55.847656 119.703125 56.710938 120.308594 57.589844 L 120.132813 57.691406 C 118.613281 55.628906 116.832031 53.710938 114.78125 51.992188 C 100.882813 40.328125 80.15625 42.144531 68.496094 56.042969 C 64.039063 61.351563 61.550781 67.65625 60.949219 74.070313 L 58.753906 74.070313 C 59.445313 65.355469 63.496094 56.910156 70.726563 50.84375 "
     id="path4" />
  <path
     fill-rule="nonzero"
     fill="rgb(39.610291%, 38.511658%, 38.78479%)"
     fill-opacity="1"
     d="M 149.40625 69.644531 L 149.40625 61.933594 L 88.980469 61.933594 L 88.980469 63.058594 L 142.1875 65.84375 L 145.496094 65.84375 L 145.496094 88.175781 L 79.265625 88.179688 L 78.28125 73.796875 L 76.125 73.789063 L 76.125 92.09375 L 149.40625 92.09375 L 149.40625 84.347656 L 153.925781 84.347656 L 153.925781 69.644531 Z M 149.40625 69.644531 "
     id="path6" />
  <path
     fill-rule="nonzero"
     fill="rgb(39.610291%, 38.511658%, 38.78479%)"
     fill-opacity="1"
     d="M 96.046875 79.699219 C 96.046875 77.789063 94.925781 75.9375 92.679688 75.460938 L 92.679688 75.40625 C 94.476563 74.703125 95.683594 73.046875 95.683594 71.167969 C 95.683594 68.136719 93.410156 66.480469 89.3125 66.480469 C 86.980469 66.480469 84.511719 66.535156 82.914063 66.621094 L 82.914063 85.535156 C 85.296875 85.535156 87.289063 85.59375 88.441406 85.59375 C 94.167969 85.59375 96.046875 82.449219 96.046875 79.699219 M 91.835938 71.753906 C 91.835938 73.441406 90.546875 74.449219 88.046875 74.449219 C 87.460938 74.449219 87.011719 74.449219 86.5625 74.421875 L 86.5625 69.484375 C 87.207031 69.453125 87.9375 69.425781 88.695313 69.425781 C 90.996094 69.425781 91.835938 70.351563 91.835938 71.753906 M 92.144531 79.78125 C 92.144531 81.496094 90.9375 82.617188 88.554688 82.617188 C 87.710938 82.617188 87.011719 82.5625 86.5625 82.503906 L 86.5625 77.199219 C 86.953125 77.171875 87.878906 77.171875 88.160156 77.171875 C 90.546875 77.171875 92.144531 77.929688 92.144531 79.78125 M 114.628906 85.3125 L 114.628906 83.066406 C 113.8125 83.011719 112.859375 82.898438 112.183594 82.785156 L 112.183594 76.132813 C 112.183594 73.074219 110.921875 71.277344 106.429688 71.277344 C 104.636719 71.277344 102.839844 71.644531 101.433594 72.148438 L 101.746094 75.152344 C 102.921875 74.480469 104.605469 74.058594 105.871094 74.058594 C 107.890625 74.058594 108.59375 74.816406 108.59375 76.273438 L 108.59375 77.03125 C 103.847656 77.03125 100.539063 78.800781 100.539063 82.140625 C 100.539063 84.386719 101.996094 85.816406 104.523438 85.816406 C 106.601563 85.816406 108.3125 84.722656 108.984375 83.152344 L 109.011719 83.179688 C 108.902344 83.910156 108.875 84.75 108.875 85.566406 C 110.699219 85.621094 112.859375 85.535156 114.628906 85.3125 M 108.59375 79.699219 C 108.59375 81.382813 107.386719 83.066406 105.617188 83.066406 C 104.578125 83.066406 103.960938 82.476563 103.960938 81.578125 C 103.960938 80.457031 104.804688 79.363281 108.59375 79.363281 Z M 126.664063 85.453125 L 126.664063 82.5625 C 126.15625 82.703125 125.511719 82.785156 124.921875 82.785156 C 123.6875 82.785156 123.265625 82.28125 123.265625 80.484375 L 123.265625 74.367188 L 126.664063 74.367188 L 126.664063 71.585938 L 123.265625 71.585938 L 123.265625 66.339844 L 119.671875 67.292969 L 119.671875 71.585938 L 117.289063 71.585938 L 117.289063 74.367188 L 119.703125 74.367188 L 119.703125 81.4375 C 119.703125 84.695313 120.65625 85.816406 123.742188 85.816406 C 124.726563 85.816406 125.765625 85.675781 126.664063 85.453125 M 139.433594 85.453125 L 139.433594 82.5625 C 138.925781 82.703125 138.28125 82.785156 137.691406 82.785156 C 136.457031 82.785156 136.035156 82.28125 136.035156 80.484375 L 136.035156 74.367188 L 139.433594 74.367188 L 139.433594 71.585938 L 136.035156 71.585938 L 136.035156 66.339844 L 132.445313 67.292969 L 132.445313 71.585938 L 130.058594 71.585938 L 130.058594 74.367188 L 132.472656 74.367188 L 132.472656 81.4375 C 132.472656 84.695313 133.425781 85.816406 136.511719 85.816406 C 137.496094 85.816406 138.535156 85.675781 139.433594 85.453125 "
     id="path8" />
  <path
     fill-rule="nonzero"
     fill="rgb(97.967529%, 71.70105%, 45.661926%)"
     fill-opacity="1"
     d="M 94.066406 48.070313 C 89.65625 48.070313 86.082031 44.496094 86.082031 40.089844 C 86.082031 35.679688 89.65625 32.105469 94.066406 32.105469 C 98.472656 32.105469 102.046875 35.679688 102.046875 40.089844 C 102.046875 44.496094 98.472656 48.070313 94.066406 48.070313 "
     id="path10" />
  <path
     fill-rule="nonzero"
     fill="rgb(100%, 100%, 100%)"
     fill-opacity="1"
     d="M 96.199219 43.695313 L 95.988281 36.414063 L 99.375 36.382813 L 99.375 37.171875 L 100.21875 37.171875 L 100.339844 36.171875 L 95.746094 34.238281 L 95.65625 31.398438 L 97.800781 31.429688 L 97.832031 32.246094 L 98.648438 32.214844 L 98.617188 31.308594 L 95.625 29.644531 L 94.570313 27.710938 L 93.570313 27.742188 L 92.394531 29.644531 L 89.402344 31.367188 L 89.460938 32.152344 L 90.1875 32.183594 L 90.367188 31.429688 L 92.453125 31.460938 L 92.242188 34.269531 L 87.769531 36.324219 L 87.832031 37.140625 L 88.644531 37.109375 L 88.707031 36.324219 L 92.179688 36.324219 L 91.9375 43.605469 L 94.117188 41.914063 Z M 96.199219 43.695313 "
     id="path12" />
  <path
     fill="none"
     stroke-width="0.756"
     stroke-linecap="round"
     stroke-linejoin="miter"
     stroke="rgb(30.984497%, 29.728699%, 30.039978%)"
     stroke-opacity="1"
     stroke-miterlimit="10"
     d="M 0.0017625 -0.00103125 L -0.650581 14.225531 L -1.627144 16.108344 L -2.709175 16.108344 L -3.685738 14.225531 L -4.334175 -0.00103125 "
     transform="matrix(1, 0, 0, -1, 96.2248, 43.7685)"
     id="path14" />
  <path
     fill="none"
     stroke-width="0.756"
     stroke-linecap="round"
     stroke-linejoin="round"
     stroke="rgb(30.984497%, 29.728699%, 30.039978%)"
     stroke-opacity="1"
     stroke-miterlimit="10"
     d="M 0.00015625 -0.0012125 L 3.125156 -1.759025 L -6.331875 -1.759025 L -3.206875 -0.0012125 "
     transform="matrix(1, 0, 0, -1, 95.66, 29.5691)"
     id="path16" />
  <path
     fill="none"
     stroke-width="0.408"
     stroke-linecap="round"
     stroke-linejoin="round"
     stroke="rgb(30.984497%, 29.728699%, 30.039978%)"
     stroke-opacity="1"
     stroke-miterlimit="10"
     d="M -0.0013125 -0.00165 L -0.0013125 -0.868837 L -0.829438 -0.868837 L -0.829438 -0.00555625 Z M -0.0013125 -0.00165 "
     transform="matrix(1, 0, 0, -1, 100.2435, 36.2796)"
     id="path18" />
  <path
     fill="none"
     stroke-width="0.756"
     stroke-linecap="round"
     stroke-linejoin="miter"
     stroke="rgb(30.984497%, 29.728699%, 30.039978%)"
     stroke-opacity="1"
     stroke-miterlimit="10"
     d="M -0.00150625 0.00191875 L -3.0601 -2.763706 M -2.927288 -0.0215187 L 0.131306 -2.763706 M 0.365681 -5.244175 L -3.157756 -8.443394 M -3.196819 -5.29105 L 0.299275 -8.486362 M 0.475056 -8.779331 L -3.5601 -12.357456 M -3.34135 -8.693394 L 0.584431 -12.314487 "
     transform="matrix(1, 0, 0, -1, 95.4976, 31.3652)"
     id="path20" />
  <path
     fill="none"
     stroke-width="0.408"
     stroke-linecap="round"
     stroke-linejoin="round"
     stroke="rgb(30.984497%, 29.728699%, 30.039978%)"
     stroke-opacity="1"
     stroke-miterlimit="10"
     d="M -0.000625 -0.00165 L -0.000625 -0.868837 L 0.831406 -0.868837 L 0.831406 -0.00555625 Z M -0.000625 -0.00165 "
     transform="matrix(1, 0, 0, -1, 87.86, 36.2796)"
     id="path22" />
  <path
     fill="none"
     stroke-width="0.756"
     stroke-linecap="round"
     stroke-linejoin="round"
     stroke="rgb(30.984497%, 29.728699%, 30.039978%)"
     stroke-opacity="1"
     stroke-miterlimit="10"
     d="M -0.0001375 -0.0008625 L -4.558731 2.018669 L -8.386856 2.018669 L -12.9767 -0.0008625 Z M -0.0001375 -0.0008625 "
     transform="matrix(1, 0, 0, -1, 100.5392, 36.2882)"
     id="path24" />
  <path
     fill="none"
     stroke-width="0.408"
     stroke-linecap="round"
     stroke-linejoin="round"
     stroke="rgb(30.984497%, 29.728699%, 30.039978%)"
     stroke-opacity="1"
     stroke-miterlimit="10"
     d="M 0.0019375 -0.00095625 L 0.0019375 -0.868144 L 0.830062 -0.868144 L 0.830062 -0.0048625 Z M 8.369125 -0.00095625 L 8.369125 -0.868144 L 9.201156 -0.868144 L 9.201156 -0.0048625 Z M 8.369125 -0.00095625 "
     transform="matrix(1, 0, 0, -1, 89.459, 31.3467)"
     id="path26" />
  <path
     fill-rule="nonzero"
     fill="rgb(96.044922%, 47.904968%, 7.907104%)"
     fill-opacity="1"
     d="M 175.375 86.023438 L 175.375 67.425781 L 171.902344 67.425781 L 171.902344 73.210938 C 171.902344 75.496094 171.957031 78.804688 172.097656 80.679688 C 171.40625 79.273438 170.664063 77.730469 169.808594 76.296875 L 164.628906 67.425781 L 159.972656 67.425781 L 159.972656 86.023438 L 163.445313 86.023438 L 163.445313 79.382813 C 163.445313 77.152344 163.390625 74.230469 163.277344 72.632813 C 163.828125 73.84375 164.492188 75.222656 165.289063 76.625 L 170.746094 86.023438 Z M 194.609375 85.804688 L 194.609375 83.597656 C 193.8125 83.542969 192.875 83.433594 192.210938 83.324219 L 192.210938 72.328125 L 188.710938 72.328125 L 188.710938 78.941406 C 188.710938 81.339844 187.308594 83.378906 185.515625 83.378906 C 184.222656 83.378906 183.835938 82.523438 183.835938 81.089844 L 183.835938 72.300781 C 181.933594 72.246094 179.757813 72.328125 177.9375 72.550781 L 177.9375 74.753906 C 178.738281 74.808594 179.648438 74.917969 180.308594 75.027344 L 180.308594 81.945313 C 180.308594 84.34375 181.300781 86.328125 184.414063 86.328125 C 186.644531 86.328125 188.242188 85.195313 189.042969 83.570313 L 189.097656 83.597656 C 188.960938 84.371094 188.933594 85.417969 188.933594 86.050781 C 190.75 86.105469 192.875 86.023438 194.609375 85.804688 M 204.53125 85.941406 L 204.53125 83.101563 C 204.035156 83.242188 203.398438 83.324219 202.820313 83.324219 C 201.609375 83.324219 201.195313 82.828125 201.195313 81.0625 L 201.195313 75.058594 L 204.53125 75.058594 L 204.53125 72.328125 L 201.195313 72.328125 L 201.195313 67.175781 L 197.667969 68.113281 L 197.667969 72.328125 L 195.324219 72.328125 L 195.324219 75.058594 L 197.695313 75.058594 L 197.695313 82 C 197.695313 85.195313 198.632813 86.300781 201.664063 86.300781 C 202.628906 86.300781 203.648438 86.160156 204.53125 85.941406 M 216.875 86.023438 L 216.875 82.800781 L 214.476563 82.800781 C 213.457031 82.800781 211.941406 82.800781 211.363281 82.828125 L 216.765625 74.835938 L 216.765625 72.328125 L 207.175781 72.328125 L 207.175781 75.46875 L 209.601563 75.46875 C 210.921875 75.46875 211.996094 75.441406 212.519531 75.414063 L 207.011719 83.515625 L 207.011719 86.023438 Z M 235.476563 85.804688 L 235.476563 83.597656 C 234.675781 83.542969 233.738281 83.433594 233.078125 83.324219 L 233.078125 72.328125 L 229.578125 72.328125 L 229.578125 78.941406 C 229.578125 81.339844 228.171875 83.378906 226.382813 83.378906 C 225.085938 83.378906 224.699219 82.523438 224.699219 81.089844 L 224.699219 72.300781 C 222.800781 72.246094 220.621094 72.328125 218.804688 72.550781 L 218.804688 74.753906 C 219.601563 74.808594 220.511719 74.917969 221.171875 75.027344 L 221.171875 81.945313 C 221.171875 84.34375 222.164063 86.328125 225.28125 86.328125 C 227.511719 86.328125 229.109375 85.195313 229.910156 83.570313 L 229.964844 83.597656 C 229.824219 84.371094 229.796875 85.417969 229.796875 86.050781 C 231.617188 86.105469 233.738281 86.023438 235.476563 85.804688 M 242.144531 72.300781 C 240.296875 72.246094 238.175781 72.328125 236.441406 72.550781 L 236.441406 74.753906 C 237.238281 74.808594 238.175781 74.917969 238.835938 75.027344 L 238.835938 86.023438 L 242.335938 86.023438 L 242.335938 79.410156 C 242.335938 77.011719 243.742188 74.972656 245.53125 74.972656 C 246.828125 74.972656 247.214844 75.828125 247.214844 77.261719 L 247.214844 86.023438 L 250.714844 86.023438 L 250.714844 76.40625 C 250.714844 74.011719 249.722656 72.023438 246.636719 72.023438 C 244.402344 72.023438 242.804688 73.15625 241.976563 74.78125 L 241.949219 74.753906 C 242.089844 74.035156 242.144531 72.960938 242.144531 72.300781 M 266.367188 86.464844 L 266.367188 72.492188 C 264.878906 72.246094 263.277344 72.082031 261.351563 72.082031 C 256.527344 72.082031 253.882813 75.277344 253.882813 79.90625 C 253.882813 84.066406 255.671875 86.300781 258.953125 86.300781 C 260.773438 86.300781 262.285156 85.335938 263.003906 83.765625 L 263.058594 83.765625 C 262.921875 84.480469 262.921875 85.085938 262.921875 85.746094 L 262.921875 86.464844 C 262.921875 88.972656 261.570313 89.882813 258.980469 89.882813 C 257.683594 89.882813 256.113281 89.550781 254.902344 89.082031 L 254.625 92.363281 C 255.8125 92.664063 257.273438 92.886719 258.816406 92.886719 C 264.878906 92.886719 266.367188 89.660156 266.367188 86.464844 M 262.867188 78.859375 C 262.867188 81.257813 261.765625 83.378906 259.917969 83.378906 C 258.320313 83.378906 257.574219 82.082031 257.574219 79.519531 C 257.574219 76.132813 259.007813 74.890625 261.019531 74.890625 C 261.707031 74.890625 262.285156 74.945313 262.867188 75.082031 Z M 262.867188 78.859375 "
     id="path28" />
  <path
     fill-rule="nonzero"
     fill="rgb(97.967529%, 71.70105%, 45.661926%)"
     fill-opacity="1"
     d="M 68.144531 108.875 C 63.734375 108.875 60.160156 105.304688 60.160156 100.894531 C 60.160156 96.488281 63.734375 92.914063 68.144531 92.914063 C 72.550781 92.914063 76.125 96.488281 76.125 100.894531 C 76.125 105.304688 72.550781 108.875 68.144531 108.875 "
     id="path30" />
  <path
     fill-rule="nonzero"
     fill="rgb(100%, 100%, 100%)"
     fill-opacity="1"
     d="M 62.648438 97.21875 L 62.871094 96.671875 C 62.871094 96.671875 63.621094 96.367188 64.765625 96.195313 C 65.910156 96.023438 67.234375 95.941406 67.789063 96.058594 C 68.351563 96.179688 69.34375 96.347656 69.566406 96.570313 C 69.789063 96.792969 70.078125 97.238281 70.078125 97.238281 L 72.296875 97.289063 L 72.296875 98.621094 L 71.390625 98.757813 L 72.488281 101.746094 L 73.289063 101.8125 L 73.269531 102.855469 L 72.539063 102.957031 L 72.402344 104.238281 L 53.289063 104.273438 L 51.617188 101.4375 L 54.894531 101.371094 L 58.140625 97.21875 Z M 62.648438 97.21875 "
     id="path32" />
  <path
     fill="none"
     stroke-width="0.693"
     stroke-linecap="butt"
     stroke-linejoin="round"
     stroke="rgb(30.984497%, 29.728699%, 30.039978%)"
     stroke-opacity="1"
     stroke-miterlimit="10"
     d="M -0.00060625 0.00191875 L 1.737675 -2.845737 L 20.90955 -2.845737 L 20.913456 -1.501987 L 21.765019 -1.498081 L 21.761113 -0.380894 L 18.429081 -0.380894 L 17.405644 -1.302769 L 6.737675 -1.330112 L 5.8158 0.00191875 Z M -0.00060625 0.00191875 "
     transform="matrix(1, 0, 0, -1, 51.5592, 101.3652)"
     id="path34" />
  <path
     fill="none"
     stroke-width="0.693"
     stroke-linecap="round"
     stroke-linejoin="round"
     stroke="rgb(30.984497%, 29.728699%, 30.039978%)"
     stroke-opacity="1"
     stroke-miterlimit="10"
     d="M -0.00029375 -0.00134375 L -1.187794 2.986937 L -1.824513 2.986937 L -1.824513 -0.0286875 M -17.469044 0.416625 L -14.371388 4.365844 L -0.195606 4.365844 L -0.195606 2.990844 L -15.312794 2.990844 M -16.551075 1.475219 L -1.8792 1.475219 "
     transform="matrix(1, 0, 0, -1, 72.5042, 101.5885)"
     id="path36" />
  <path
     fill="none"
     stroke-width="0.693"
     stroke-linecap="butt"
     stroke-linejoin="round"
     stroke="rgb(30.984497%, 29.728699%, 30.039978%)"
     stroke-opacity="1"
     stroke-miterlimit="10"
     d="M -0.0012 0.0009125 C -0.03245 0.0516937 -0.048075 0.102475 -0.048075 0.157162 C -0.048075 0.696225 1.596456 1.133725 3.6238 1.133725 C 5.651144 1.133725 7.295675 0.696225 7.295675 0.157162 C 7.295675 0.110287 7.28005 0.0634125 7.256613 0.0165375 "
     transform="matrix(1, 0, 0, -1, 62.7512, 97.1806)"
     id="path38" />
  <path
     fill-rule="nonzero"
     fill="rgb(97.967529%, 71.70105%, 45.661926%)"
     fill-opacity="1"
     d="M 60.371094 69.800781 C 55.964844 69.800781 52.390625 66.226563 52.390625 61.820313 C 52.390625 57.410156 55.964844 53.835938 60.371094 53.835938 C 64.78125 53.835938 68.355469 57.410156 68.355469 61.820313 C 68.355469 66.226563 64.78125 69.800781 60.371094 69.800781 "
     id="path40" />
  <path
     fill-rule="nonzero"
     fill="rgb(100%, 100%, 100%)"
     fill-opacity="1"
     d="M 62.230469 65.699219 C 62.230469 65.699219 63.003906 65.519531 63.253906 65.222656 C 63.503906 64.925781 63.800781 64.472656 63.800781 64.472656 C 63.800781 64.472656 65.527344 64.515625 65.800781 64.152344 C 66.074219 63.789063 66.6875 60.21875 66.6875 60.21875 C 66.6875 60.21875 62.617188 58.351563 60.910156 58.125 C 59.203125 57.898438 58.773438 57.761719 57.386719 57.738281 C 55.996094 57.714844 53.0625 58.148438 52.039063 58.695313 C 51.015625 59.238281 50.515625 60.058594 49.902344 60.195313 C 49.285156 60.332031 46.785156 60.558594 45.761719 60.832031 C 44.738281 61.105469 44.238281 61.445313 44.371094 61.855469 C 44.511719 62.265625 44.851563 62.765625 44.804688 63.015625 C 44.761719 63.265625 44.488281 64.378906 44.738281 64.425781 C 44.988281 64.472656 46.671875 64.472656 46.671875 64.472656 C 46.671875 64.472656 47.160156 65.53125 48.011719 65.585938 C 49.082031 65.652344 49.628906 64.515625 49.628906 64.515625 L 60.773438 64.472656 C 60.773438 64.472656 61.640625 65.769531 62.230469 65.699219 "
     id="path42" />
  <path
     fill="none"
     stroke-width="0.84"
     stroke-linecap="butt"
     stroke-linejoin="round"
     stroke="rgb(30.984497%, 29.728699%, 30.039978%)"
     stroke-opacity="1"
     stroke-miterlimit="10"
     d="M -0.0019125 0.0003 C -0.0019125 -0.796575 -0.646444 -1.445012 -1.443319 -1.445012 C -2.240194 -1.445012 -2.888631 -0.796575 -2.888631 0.0003 C -2.888631 0.797175 -2.240194 1.445613 -1.443319 1.445613 C -0.646444 1.445613 -0.0019125 0.797175 -0.0019125 0.0003 Z M -14.177694 0.0003 C -14.177694 -0.796575 -14.826131 -1.445012 -15.623006 -1.445012 C -16.419881 -1.445012 -17.068319 -0.796575 -17.068319 0.0003 C -17.068319 0.797175 -16.419881 1.445613 -15.623006 1.445613 C -14.826131 1.445613 -14.177694 0.797175 -14.177694 0.0003 Z M -14.107381 -0.323919 L -2.888631 -0.323919 M 0.216838 -0.300481 C 0.216838 -0.300481 1.837931 -0.394231 2.337931 0.2503 C 2.841838 0.894831 3.056681 3.902644 3.056681 3.902644 C 3.056681 3.902644 -1.720662 6.574519 -6.90035 6.410456 C -12.076131 6.242488 -12.388631 4.476863 -13.939412 3.972956 C -15.490194 3.472956 -18.548787 3.449519 -19.1191 2.804988 C -19.693319 2.160456 -18.880819 1.515925 -18.857381 1.109675 C -18.833944 0.703425 -19.236287 -0.288762 -18.763631 -0.269231 C -18.259725 -0.2497 -17.8066 -0.323919 -16.9941 -0.292669 "
     transform="matrix(1, 0, 0, -1, 63.6816, 64.1253)"
     id="path44" />
  <path
     fill="none"
     stroke-width="0.84"
     stroke-linecap="round"
     stroke-linejoin="round"
     stroke="rgb(30.984497%, 29.728699%, 30.039978%)"
     stroke-opacity="1"
     stroke-miterlimit="10"
     d="M 0.00056875 -0.000125 C 0.00056875 -0.000125 -2.038494 -0.976687 -3.460369 -1.168094 C -5.7299 -1.480594 -11.7924 -1.433719 -13.940838 -1.121219 C -14.659588 -1.019656 -16.44865 -0.882937 -16.44865 -0.882937 M -7.640056 1.67175 L -8.022869 -1.195437 "
     transform="matrix(1, 0, 0, -1, 65.0424, 59.578)"
     id="path46" />
  <path
     fill-rule="nonzero"
     fill="rgb(30.984497%, 29.728699%, 30.039978%)"
     fill-opacity="1"
     d="M 124.589844 119.46875 C 128.261719 119.46875 130.035156 117.574219 130.035156 112.773438 L 130.035156 107.085938 C 130.035156 103.628906 128.261719 101.421875 124.589844 101.421875 C 120.917969 101.421875 119.140625 103.628906 119.140625 107.085938 L 119.140625 112.773438 C 119.140625 117.574219 120.917969 119.46875 124.589844 119.46875 M 124.589844 117.621094 C 122.5 117.621094 121.394531 116.660156 121.394531 112.871094 L 121.394531 107.015625 C 121.394531 103.390625 123.890625 103.269531 124.589844 103.269531 C 125.285156 103.269531 127.78125 103.390625 127.78125 107.015625 L 127.78125 112.871094 C 127.78125 116.660156 126.675781 117.621094 124.589844 117.621094 M 133.636719 113.949219 C 133.589844 115.605469 133.589844 119.519531 138.699219 119.46875 C 141.554688 119.46875 144.074219 118.292969 144.074219 114.644531 C 144.074219 109.148438 136.300781 109.703125 136.300781 105.886719 C 136.300781 104.015625 137.644531 103.34375 138.964844 103.34375 C 141.050781 103.34375 141.652344 104.589844 141.628906 106.484375 L 143.933594 106.484375 C 144.074219 102.957031 142.300781 101.421875 139.132813 101.421875 C 136.226563 101.421875 134.042969 103.054688 134.042969 106.125 C 134.042969 111.335938 141.820313 110.902344 141.820313 114.742188 C 141.820313 116.804688 140.476563 117.550781 138.722656 117.550781 C 137.308594 117.550781 135.820313 116.804688 135.820313 114.453125 L 135.820313 113.949219 Z M 156.269531 119.109375 L 156.269531 117.191406 L 149.90625 117.191406 L 149.90625 101.78125 L 147.699219 101.78125 L 147.699219 119.109375 Z M 160.300781 106.988281 L 158.332031 106.988281 L 158.332031 119.109375 L 160.300781 119.109375 Z M 158.210938 103.894531 L 160.417969 103.894531 L 160.417969 101.78125 L 158.210938 101.78125 Z M 166.585938 111 L 168.9375 111 C 171.195313 111 172.898438 111.476563 172.898438 114.238281 C 172.898438 115.511719 172.058594 117.191406 169.707031 117.191406 L 166.585938 117.191406 Z M 166.585938 103.703125 L 169.707031 103.703125 C 171.554688 103.703125 172.371094 104.878906 172.371094 106.316406 C 172.371094 108 171.53125 109.054688 169.804688 109.078125 L 166.585938 109.078125 Z M 169.945313 119.109375 C 171.914063 119.109375 175.15625 118.679688 175.15625 114.238281 C 175.15625 111.863281 174.074219 110.375 171.601563 110.085938 L 171.601563 109.964844 C 173.835938 109.460938 174.578125 108.023438 174.578125 105.863281 C 174.578125 105.527344 174.484375 104.492188 173.882813 103.558594 C 173.234375 102.597656 172.417969 101.78125 170.019531 101.78125 L 164.378906 101.78125 L 164.378906 119.109375 Z M 169.945313 119.109375 "
     id="path48" />
</svg>
