G04*
G04 #@! TF.GenerationSoftware,Altium Limited,Altium Designer,23.9.2 (47)*
G04*
G04 Layer_Color=255*
%FSLAX25Y25*%
%MOIN*%
G70*
G04*
G04 #@! TF.SameCoordinates,C371DFDB-9961-426A-A2C8-C1DE3340BBDC*
G04*
G04*
G04 #@! TF.FilePolarity,Positive*
G04*
G01*
G75*
%ADD17R,0.16535X0.16732*%
%ADD18R,0.05709X0.02165*%
%ADD19R,0.03740X0.03150*%
%ADD20O,0.07874X0.01772*%
G04:AMPARAMS|DCode=21|XSize=19.68mil|YSize=7.87mil|CornerRadius=1.97mil|HoleSize=0mil|Usage=FLASHONLY|Rotation=0.000|XOffset=0mil|YOffset=0mil|HoleType=Round|Shape=RoundedRectangle|*
%AMROUNDEDRECTD21*
21,1,0.01968,0.00394,0,0,0.0*
21,1,0.01575,0.00787,0,0,0.0*
1,1,0.00394,0.00787,-0.00197*
1,1,0.00394,-0.00787,-0.00197*
1,1,0.00394,-0.00787,0.00197*
1,1,0.00394,0.00787,0.00197*
%
%ADD21ROUNDEDRECTD21*%
G04:AMPARAMS|DCode=22|XSize=75.2mil|YSize=90.55mil|CornerRadius=18.8mil|HoleSize=0mil|Usage=FLASHONLY|Rotation=0.000|XOffset=0mil|YOffset=0mil|HoleType=Round|Shape=RoundedRectangle|*
%AMROUNDEDRECTD22*
21,1,0.07520,0.05295,0,0,0.0*
21,1,0.03760,0.09055,0,0,0.0*
1,1,0.03760,0.01880,-0.02648*
1,1,0.03760,-0.01880,-0.02648*
1,1,0.03760,-0.01880,0.02648*
1,1,0.03760,0.01880,0.02648*
%
%ADD22ROUNDEDRECTD22*%
G04:AMPARAMS|DCode=23|XSize=74.8mil|YSize=23.62mil|CornerRadius=9.45mil|HoleSize=0mil|Usage=FLASHONLY|Rotation=90.000|XOffset=0mil|YOffset=0mil|HoleType=Round|Shape=RoundedRectangle|*
%AMROUNDEDRECTD23*
21,1,0.07480,0.00472,0,0,90.0*
21,1,0.05591,0.02362,0,0,90.0*
1,1,0.01890,0.00236,0.02795*
1,1,0.01890,0.00236,-0.02795*
1,1,0.01890,-0.00236,-0.02795*
1,1,0.01890,-0.00236,0.02795*
%
%ADD23ROUNDEDRECTD23*%
%ADD24R,0.05709X0.04528*%
%ADD25R,0.03150X0.03740*%
%ADD26R,0.16142X0.13780*%
%ADD27R,0.03583X0.04803*%
%ADD28O,0.01772X0.07874*%
%ADD29R,0.18701X0.06000*%
%ADD30R,0.09843X0.04921*%
%ADD31R,0.04921X0.09843*%
%ADD32R,0.04724X0.03347*%
%ADD33R,0.04134X0.06299*%
%ADD34R,0.06717X0.04349*%
G04:AMPARAMS|DCode=35|XSize=53.15mil|YSize=64.96mil|CornerRadius=13.29mil|HoleSize=0mil|Usage=FLASHONLY|Rotation=90.000|XOffset=0mil|YOffset=0mil|HoleType=Round|Shape=RoundedRectangle|*
%AMROUNDEDRECTD35*
21,1,0.05315,0.03839,0,0,90.0*
21,1,0.02657,0.06496,0,0,90.0*
1,1,0.02657,0.01919,0.01329*
1,1,0.02657,0.01919,-0.01329*
1,1,0.02657,-0.01919,-0.01329*
1,1,0.02657,-0.01919,0.01329*
%
%ADD35ROUNDEDRECTD35*%
%ADD36R,0.02756X0.00984*%
%ADD37R,0.04134X0.03740*%
%ADD38R,0.03740X0.04134*%
%ADD39R,0.25591X0.09449*%
%ADD40R,0.17717X0.09449*%
%ADD41R,0.04182X0.04952*%
%ADD69O,0.04724X0.39370*%
%ADD70C,0.39370*%
D17*
X67520Y196201D02*
D03*
X36024Y196043D02*
D03*
D18*
X82677Y203701D02*
D03*
Y198701D02*
D03*
Y193701D02*
D03*
Y188701D02*
D03*
X51181Y203543D02*
D03*
Y198543D02*
D03*
Y193543D02*
D03*
Y188543D02*
D03*
D19*
X84646Y97146D02*
D03*
Y91831D02*
D03*
X46161Y160531D02*
D03*
Y165847D02*
D03*
X71063Y160531D02*
D03*
Y165847D02*
D03*
X64075Y102362D02*
D03*
Y107677D02*
D03*
X76083Y102657D02*
D03*
Y107972D02*
D03*
D20*
X435630Y57185D02*
D03*
Y59744D02*
D03*
Y62303D02*
D03*
Y64862D02*
D03*
X418701Y57185D02*
D03*
Y59744D02*
D03*
Y62303D02*
D03*
Y64862D02*
D03*
X221063Y57185D02*
D03*
Y59744D02*
D03*
Y62303D02*
D03*
Y64862D02*
D03*
X204134Y57185D02*
D03*
Y59744D02*
D03*
Y62303D02*
D03*
Y64862D02*
D03*
X435630Y330807D02*
D03*
Y333366D02*
D03*
Y335925D02*
D03*
Y338484D02*
D03*
X418701Y330807D02*
D03*
Y333366D02*
D03*
Y335925D02*
D03*
Y338484D02*
D03*
X221063Y330807D02*
D03*
Y333366D02*
D03*
Y335925D02*
D03*
Y338484D02*
D03*
X204134Y330807D02*
D03*
Y333366D02*
D03*
Y335925D02*
D03*
Y338484D02*
D03*
X323425Y193405D02*
D03*
Y195965D02*
D03*
Y198524D02*
D03*
Y201083D02*
D03*
X306496Y193405D02*
D03*
Y195965D02*
D03*
Y198524D02*
D03*
Y201083D02*
D03*
D21*
X159055Y180217D02*
D03*
Y215650D02*
D03*
D22*
X466142Y187008D02*
D03*
Y208661D02*
D03*
D23*
X76043Y152559D02*
D03*
X71043D02*
D03*
X66043D02*
D03*
X61043D02*
D03*
X56043D02*
D03*
X51043D02*
D03*
X46043D02*
D03*
X41122D02*
D03*
X76122Y115551D02*
D03*
X71122D02*
D03*
X66122D02*
D03*
X61122D02*
D03*
X56122D02*
D03*
X51122D02*
D03*
X46122D02*
D03*
X41122D02*
D03*
D24*
X39370Y178347D02*
D03*
Y171457D02*
D03*
D25*
X72539Y91142D02*
D03*
X77854D02*
D03*
X76575Y171653D02*
D03*
X71260D02*
D03*
X52559Y171457D02*
D03*
X47244D02*
D03*
X58563Y94627D02*
D03*
X63878D02*
D03*
X63386Y70956D02*
D03*
X58071D02*
D03*
D26*
X96063Y229921D02*
D03*
X58661D02*
D03*
D27*
X85472Y178740D02*
D03*
X72598D02*
D03*
X60216Y178150D02*
D03*
X47343D02*
D03*
D28*
X77362Y66921D02*
D03*
X74803D02*
D03*
X72244D02*
D03*
X69685D02*
D03*
X77362Y49991D02*
D03*
X74803D02*
D03*
X72244D02*
D03*
X69685D02*
D03*
D29*
X37598Y55070D02*
D03*
Y45070D02*
D03*
Y35070D02*
D03*
X14764Y55070D02*
D03*
Y45070D02*
D03*
Y35070D02*
D03*
X35236Y345787D02*
D03*
Y335787D02*
D03*
Y325787D02*
D03*
X12402Y345787D02*
D03*
Y335787D02*
D03*
Y325787D02*
D03*
D30*
X36220Y229134D02*
D03*
Y215748D02*
D03*
X99213Y159055D02*
D03*
Y145669D02*
D03*
D31*
X111417Y207874D02*
D03*
X124803D02*
D03*
D32*
X35236Y164715D02*
D03*
Y152707D02*
D03*
D33*
X112303Y180709D02*
D03*
X123917D02*
D03*
X112303Y189370D02*
D03*
X123917D02*
D03*
X112303Y198031D02*
D03*
X123917D02*
D03*
D34*
X88583Y157877D02*
D03*
Y147635D02*
D03*
D35*
X72736Y84047D02*
D03*
D36*
X67126Y86015D02*
D03*
Y84047D02*
D03*
Y82078D02*
D03*
X78347Y84047D02*
D03*
Y86015D02*
D03*
Y82078D02*
D03*
D37*
X57677Y55208D02*
D03*
Y60917D02*
D03*
X82776Y114961D02*
D03*
Y109252D02*
D03*
X63779Y159744D02*
D03*
Y165453D02*
D03*
X63386Y60917D02*
D03*
Y55208D02*
D03*
X69587Y101969D02*
D03*
Y107677D02*
D03*
X81496Y155610D02*
D03*
Y149902D02*
D03*
D38*
X74213Y76870D02*
D03*
X68504D02*
D03*
D39*
X14959Y291339D02*
D03*
Y267717D02*
D03*
D40*
X60234Y291339D02*
D03*
Y267717D02*
D03*
D41*
X88287Y115264D02*
D03*
Y108948D02*
D03*
X58071Y159843D02*
D03*
Y166159D02*
D03*
D69*
X129921Y33071D02*
D03*
Y85827D02*
D03*
Y137795D02*
D03*
Y251969D02*
D03*
Y303937D02*
D03*
Y359055D02*
D03*
D70*
X482283Y354331D02*
D03*
X167323Y354331D02*
D03*
Y39370D02*
D03*
X482283D02*
D03*
M02*
